<svg width="12" height="12" viewBox="0 0 12 12" fill="none" xmlns="http://www.w3.org/2000/svg">
<path fill-rule="evenodd" clip-rule="evenodd" d="M9.49854 2H8.99854V1.5C8.99854 1.225 8.77354 1 8.49854 1C8.22354 1 7.99854 1.225 7.99854 1.5V2H3.99854V1.5C3.99854 1.225 3.77354 1 3.49854 1C3.22354 1 2.99854 1.225 2.99854 1.5V2H2.49854C1.94354 2 1.50354 2.45 1.50354 3L1.49854 10C1.49854 10.55 1.94354 11 2.49854 11H9.49854C10.0485 11 10.4985 10.55 10.4985 10V3C10.4985 2.45 10.0485 2 9.49854 2ZM9.49854 9.5C9.49854 9.775 9.27354 10 8.99854 10H2.99854C2.72354 10 2.49854 9.775 2.49854 9.5V4.5H9.49854V9.5ZM3.49854 5.5H4.49854V6.5H3.49854V5.5ZM5.49854 5.5H6.49854V6.5H5.49854V5.5ZM7.49854 5.5H8.49854V6.5H7.49854V5.5Z" fill="white"/>
</svg>
