<svg width="18" height="24" viewBox="0 0 18 24" fill="none" xmlns="http://www.w3.org/2000/svg">
<path d="M8.92485 13C9.3072 13 9.61716 12.5523 9.61716 12C9.61716 11.4477 9.3072 11 8.92485 11C8.5425 11 8.23254 11.4477 8.23254 12C8.23254 12.5523 8.5425 13 8.92485 13Z" stroke="#9A9AB0" stroke-width="2" stroke-linecap="round" stroke-linejoin="round"/>
<path d="M8.92485 6C9.3072 6 9.61716 5.55228 9.61716 5C9.61716 4.44772 9.3072 4 8.92485 4C8.5425 4 8.23254 4.44772 8.23254 5C8.23254 5.55228 8.5425 6 8.92485 6Z" stroke="#9A9AB0" stroke-width="2" stroke-linecap="round" stroke-linejoin="round"/>
<path d="M8.92485 20C9.3072 20 9.61716 19.5523 9.61716 19C9.61716 18.4477 9.3072 18 8.92485 18C8.5425 18 8.23254 18.4477 8.23254 19C8.23254 19.5523 8.5425 20 8.92485 20Z" stroke="#9A9AB0" stroke-width="2" stroke-linecap="round" stroke-linejoin="round"/>
</svg>
